<svg width="230" height="111" viewBox="0 0 230 111" fill="none" xmlns="http://www.w3.org/2000/svg">
<path d="M26.729 55.8578C26.1289 55.8578 25.5288 55.7409 24.9287 55.5071C24.3287 55.2733 24.0286 55.0006 24.0286 54.6889C24.0286 54.4551 24.2286 54.0655 24.6287 53.5201C25.0288 53.0136 25.2038 52.624 25.1538 52.3512L24.9287 47.2083L24.4037 31.2536L24.2536 24.1821C24.2036 19.8574 24.0786 17.1495 23.8786 16.0586C23.7786 15.63 23.5785 15.143 23.2785 14.5976C22.9284 13.8573 22.7534 13.3313 22.7534 13.0196C22.7534 12.0845 24.6537 11.617 28.4543 11.617H28.8293C31.3797 11.617 33.5801 12.2988 35.4303 13.6625C36.8806 14.7144 38.1808 16.3703 39.3309 18.6301C40.131 20.4223 40.7311 22.4288 41.1312 24.6496C41.3312 25.8185 41.5063 27.6107 41.6563 30.0263V31.838C41.6563 34.2536 41.2312 36.8835 40.3811 39.7277C39.581 42.5329 38.4308 45.1628 36.9306 47.6174C36.0304 49.1759 34.8552 50.5785 33.405 51.8252C32.0048 53.072 30.6546 54.0655 29.3544 54.8058C28.0542 55.5071 27.1791 55.8578 26.729 55.8578ZM27.8542 52.8772C29.7045 52.1369 31.3547 51.0655 32.8049 49.6629C34.2552 48.2213 35.4053 46.6434 36.2555 44.9291C37.0056 43.4875 37.6307 41.8511 38.1307 40.0199C38.6308 38.1498 38.9809 36.416 39.1809 34.8186C39.3309 33.416 39.4059 32.0718 39.4059 30.786C39.4059 19.4093 35.3803 13.7209 27.3291 13.7209C26.279 13.7209 25.7539 13.9352 25.7539 14.3638C25.7539 15.7274 25.8539 17.3443 26.0539 19.2145C26.2539 21.1236 26.354 22.7405 26.354 24.0652C26.354 26.2081 26.554 29.9289 26.9541 35.2277C27.3041 39.8251 27.4791 43.5265 27.4791 46.3317V52.8772H27.8542ZM63.4741 56.4422C62.874 55.9357 62.2239 54.5915 61.5238 52.4097C60.8237 50.2278 60.1736 47.7733 59.5735 45.046C59.1734 42.8251 58.5983 40.6238 57.8482 38.442C57.2481 36.4939 56.6731 35.5199 56.123 35.5199H55.8979C54.7978 35.5199 54.2477 35.7926 54.2477 36.3381C54.2477 39.1433 54.4477 43.4096 54.8478 49.1369C55.0478 52.6434 55.2728 54.6889 55.5229 55.2733L54.9228 56.2669H53.8726L53.2725 55.7993C52.4724 37.7991 52.0724 25.5263 52.0724 18.9807C52.0724 18.5521 52.0974 18.2015 52.1474 17.9288C52.2474 17.656 52.4224 17.4028 52.6724 17.169C52.8725 16.8963 53.2225 16.7599 53.7226 16.7599C56.273 16.7599 58.3233 17.2469 59.8735 18.221C61.4238 19.195 62.1989 20.5976 62.1989 22.4288V26.6951C62.1989 27.4354 61.8738 28.4289 61.2237 29.6756C60.6237 30.9224 59.9485 32.0718 59.1984 33.1237L58.2233 34.5848C58.7734 36.5718 59.8485 40.1563 61.4488 45.3382C63.099 50.4811 63.9992 53.2084 64.1492 53.5201C64.1992 53.559 64.2492 53.6564 64.2992 53.8123C64.3992 53.9681 64.5742 54.2019 64.8243 54.5136C65.1743 55.0591 65.3494 55.5266 65.3494 55.9162C65.3494 56.4617 65.0743 56.7344 64.5242 56.7344L63.4741 56.4422ZM54.6227 34.0588C55.5729 34.0588 56.423 33.6887 57.1731 32.9484C57.9232 32.2081 58.5233 31.2536 58.9734 30.0847C59.7735 27.7081 60.1736 25.8185 60.1736 24.4158C60.1736 23.5197 60.0986 22.7795 59.9485 22.195C59.8485 21.6106 59.6485 20.9872 59.3485 20.3249C58.7484 18.9612 57.3231 18.2794 55.0728 18.2794C54.8228 18.2794 54.6227 18.4547 54.4727 18.8054C54.3227 19.1171 54.2477 19.4483 54.2477 19.7989C54.2477 22.4093 54.2977 24.7665 54.3977 26.8704C54.4477 28.9743 54.4727 31.3315 54.4727 33.9419L54.6227 34.0588ZM75.1789 56.5006C74.2787 56.5006 73.7786 56.0915 73.6786 55.2733V54.5136C73.7286 54.3188 73.7536 54.085 73.7536 53.8123L73.4536 53.5785C73.8537 52.7603 74.0537 51.9616 74.0537 51.1824C74.0537 50.2863 73.9787 49.0005 73.8287 47.3252L73.6786 43.468C73.6786 41.5199 73.7536 38.5978 73.9037 34.7017C74.1037 31.2341 74.2037 28.2925 74.2037 25.8769L74.0537 22.3704C73.9537 21.3184 73.9037 20.1496 73.9037 18.8638C73.9037 18.2794 74.0787 17.8703 74.4287 17.6366C74.7788 17.3638 75.3289 17.2275 76.079 17.2275C76.5791 17.2275 76.9791 17.3443 77.2792 17.5781C77.3792 17.6171 78.1043 17.695 79.4545 17.8119C80.7047 17.9288 81.7799 18.1041 82.68 18.3379C83.6301 18.5716 84.1052 18.8638 84.1052 19.2145C84.1052 19.6041 83.6301 19.9937 82.68 20.3833C79.8296 19.6431 77.8042 19.2729 76.6041 19.2729L76.229 19.6236C76.279 19.9742 76.304 20.8119 76.304 22.1366C76.304 23.8119 76.254 25.312 76.154 26.6367C76.104 28.0003 76.079 29.5198 76.079 31.1951C76.079 32.2861 76.429 32.8315 77.1291 32.8315L78.3293 32.7731C78.7294 32.7341 79.1545 32.7146 79.6045 32.7146C81.5548 32.7146 82.53 33.0653 82.53 33.7666C82.53 34.1952 82.4049 34.5653 82.1549 34.877C81.9049 35.1497 81.5298 35.2861 81.0297 35.2861C80.2796 35.2861 79.7045 35.1303 79.3045 34.8186L76.9041 34.5264H76.5291L76.154 34.8186V34.9939C76.254 35.6562 76.304 37.1952 76.304 39.6108C76.304 41.1303 76.279 42.5135 76.229 43.7602L76.154 47.9096C76.154 49.4291 76.229 50.9876 76.379 52.585C76.429 53.4811 76.6791 54.085 77.1291 54.3967C77.5792 54.6694 78.4043 54.8058 79.6045 54.8058L80.9547 54.7474C81.4048 54.7084 81.9049 54.6889 82.455 54.6889C83.9052 54.6889 84.6303 54.9422 84.6303 55.4487C84.6303 56.15 83.5301 56.5006 81.3298 56.5006H75.1789ZM107.723 56.2669C106.973 56.2669 106.498 56.1889 106.298 56.0331C106.098 55.9162 105.948 55.5656 105.848 54.9811C105.398 52.1369 105.123 50.3642 105.023 49.6629L104.648 47.3252C103.547 47.1304 102.297 47.033 100.897 47.033L98.1966 46.9161C96.9964 46.7992 96.1213 46.7408 95.5712 46.7408C95.2712 46.7408 95.0961 46.8382 95.0461 47.033C95.0461 47.1499 95.0211 47.2083 94.9711 47.2083L94.8211 48.3772C94.7711 49.0785 94.496 50.4811 93.996 52.585C93.7459 53.637 93.4459 54.4551 93.0958 55.0396C92.6958 55.7019 92.3207 56.0331 91.9706 56.0331C91.6706 56.0331 91.3456 55.9357 90.9955 55.7409C90.6454 55.5071 90.4704 55.2733 90.4704 55.0396L90.5454 54.8642L90.6204 54.6889C91.5206 51.9227 92.2707 49.1759 92.8708 46.4486L93.7709 42.8251L94.6711 38.3835C94.6711 38.3835 94.9461 37.0978 95.4962 34.5264C95.7462 33.4744 96.1963 31.7796 96.8464 29.4419C97.5465 26.7925 97.9716 24.9808 98.1216 24.0068C98.1716 23.8899 98.2716 23.1691 98.4216 21.8444C98.6217 20.3639 98.7967 19.2729 98.9467 18.5716C99.0967 17.5586 99.2467 16.9742 99.3968 16.8184H99.9219C100.072 16.8573 100.247 16.8768 100.447 16.8768C101.047 16.8768 101.497 16.7599 101.797 16.5261C102.147 16.5261 102.447 16.6236 102.697 16.8184C102.997 16.9742 103.147 17.169 103.147 17.4028C103.147 19.2729 103.322 21.4158 103.672 23.8314C103.872 25.0782 104.022 26.1107 104.122 26.9289C104.673 31.9549 106.073 41.3836 108.323 55.2149V55.3902C108.323 55.7798 108.123 56.0721 107.723 56.2669ZM104.273 45.7473C103.772 40.1368 102.822 31.8575 101.422 20.9093L97.3715 36.5134C96.2213 40.994 95.6462 43.8187 95.6462 44.9875C95.6462 45.1823 96.5963 45.3576 98.4966 45.5135C100.397 45.6693 102.072 45.7473 103.522 45.7473H104.273ZM146.09 58.7799C145.089 58.7799 144.589 57.5331 144.589 55.0396V51.1824C144.589 45.5719 144.439 41.1888 144.139 38.0329L143.914 35.8705C143.714 34.8965 143.614 34.0393 143.614 33.2991C143.614 31.9744 143.664 30.7666 143.764 29.6756L143.914 26.0522C143.914 24.8444 143.814 23.9288 143.614 23.3054C142.614 23.8509 139.589 32.0523 134.538 47.9096L134.463 48.7863C134.313 49.7603 134.113 50.5395 133.863 51.1239C133.713 51.5525 133.488 51.8837 133.188 52.1175C132.938 52.3512 132.638 52.4681 132.287 52.4681C131.487 52.4681 130.912 52.3123 130.562 52.0006C130.212 51.6889 130.037 51.2019 130.037 50.5395C130.037 49.4876 129.387 46.7603 128.087 42.3576C126.837 37.955 125.461 33.7276 123.961 29.6756C122.511 25.6237 121.511 23.3834 120.961 22.9548C120.911 24.3184 120.711 27.5328 120.361 32.5978C119.661 41.5589 119.311 48.6109 119.311 53.7538L119.386 56.0915C119.186 56.598 118.66 56.8513 117.81 56.8513C117.66 56.8513 117.41 56.7344 117.06 56.5006C116.71 56.3058 116.535 56.15 116.535 56.0331C116.535 52.5266 116.935 46.3706 117.735 37.5653C118.485 29.3834 118.86 23.247 118.86 19.156C118.86 18.9612 118.81 18.7664 118.71 18.5716C118.56 18.3379 118.485 18.1625 118.485 18.0456C118.485 17.4612 119.136 17.169 120.436 17.169C121.286 17.169 121.786 17.4612 121.936 18.0456C122.136 18.8249 122.236 19.4093 122.236 19.7989L122.311 20.5002C122.561 21.5132 123.286 23.0717 124.486 25.1756C125.436 26.8509 126.162 28.312 126.662 29.5588C126.962 30.4938 127.237 31.2536 127.487 31.838C128.287 34.0978 128.812 35.7731 129.062 36.864L130.037 38.3835C130.187 38.968 130.487 39.9225 130.937 41.2472C131.387 42.7277 131.712 43.9355 131.912 44.8706C132.112 45.8057 132.212 46.7018 132.212 47.559C132.763 46.8966 134.313 42.9226 136.863 35.6368C139.464 28.312 140.989 23.6366 141.439 21.6106C141.489 21.5327 141.514 21.4353 141.514 21.3184C141.564 21.1626 141.614 20.9678 141.664 20.734C141.764 20.2275 141.989 19.4677 142.339 18.4547C142.739 17.6755 143.339 17.2859 144.139 17.2859C144.489 17.2859 144.889 17.4028 145.339 17.6366C145.79 17.8703 146.015 18.1041 146.015 18.3379C146.015 34.5848 146.34 43.1758 146.99 44.1109V47.1499C146.94 48.046 146.915 49.0785 146.915 50.2473C146.915 52.7408 147.09 54.611 147.44 55.8578C147.49 55.8967 147.515 55.9552 147.515 56.0331C147.565 56.111 147.615 56.2084 147.665 56.3253C147.715 56.4811 147.74 56.6565 147.74 56.8513C147.74 57.2799 147.565 57.7084 147.215 58.137C146.915 58.5656 146.54 58.7799 146.09 58.7799ZM143.614 22.9548H143.539L143.389 23.0132L143.614 23.0717V22.9548Z" fill="#1E293B"/>
<path d="M2.92544 99.144C1.07516 99.144 0.150023 98.8712 0.150023 98.3258C0.150023 96.6894 0.225034 94.2154 0.375057 90.9036L0.52508 83.5399C0.52508 80.8126 0.450068 76.7411 0.300046 71.3255C0.100015 66.5332 0 62.4812 0 59.1695C0 56.3643 0.650099 54.9617 1.9503 54.9617C5.3008 54.9617 7.87619 55.7993 9.67646 57.4747C11.5267 59.15 12.4519 61.3708 12.4519 64.1371C12.4519 67.254 10.8516 70.4878 7.65116 73.8385C10.3016 75.9035 12.1518 77.871 13.202 79.7412C14.3022 81.6113 14.8522 83.8516 14.8522 86.462C14.8522 88.0594 14.7772 89.3452 14.6272 90.3192C14.5272 91.2543 14.3022 92.1309 13.9521 92.9491C13.6021 93.8063 13.102 94.5465 12.4519 95.1699C11.8518 95.7933 11.0267 96.3777 9.97651 96.9232C8.97636 97.4686 7.67616 98.0141 6.07592 98.5596C5.47583 98.6764 4.97575 98.7738 4.57569 98.8518C3.92559 99.0466 3.42552 99.144 3.07547 99.144H2.92544ZM2.85043 73.5463C3.9506 73.5463 5.00076 73.1762 6.00091 72.4359C7.00106 71.6956 7.82619 70.7216 8.47628 69.5138C9.12638 68.3839 9.62646 67.2151 9.97651 66.0073C10.3266 64.7605 10.5016 63.6306 10.5016 62.6176C10.5016 61.2539 9.85149 59.9682 8.55129 58.7604C7.3011 57.5526 5.87589 56.9487 4.27565 56.9487C2.97545 56.9487 2.32535 57.7864 2.32535 59.4617C2.32535 62.0721 2.37536 64.4098 2.47537 66.4748L2.6254 73.4879L2.85043 73.5463ZM3.45052 96.8647C5.15078 96.8647 6.70101 96.4751 8.10123 95.6959C9.55145 94.8777 10.6766 93.8063 11.4767 92.4816C12.3269 91.1569 12.7519 89.7348 12.7519 88.2153C12.7519 81.2412 10.6016 77.0528 6.30095 75.6502C5.90089 75.6502 5.25079 75.7476 4.35066 75.9424C3.50053 76.1762 2.92544 76.2931 2.6254 76.2931C2.87544 82.6438 3.00045 89.4815 3.00045 96.8063H3.22549L3.45052 96.8647ZM35.5754 99.4946C34.9753 98.9881 34.3252 97.644 33.6251 95.4621C32.925 93.2803 32.2749 90.8257 31.6748 88.0984C31.2747 85.8776 30.6996 83.6763 29.9495 81.4944C29.3494 79.5464 28.7744 78.5723 28.2243 78.5723H27.9992C26.8991 78.5723 26.349 78.8451 26.349 79.3905C26.349 82.1957 26.549 86.462 26.9491 92.1894C27.1491 95.6959 27.3741 97.7414 27.6242 98.3258L27.0241 99.3193H25.9739L25.3738 98.8518C24.5737 80.8516 24.1737 68.5787 24.1737 62.0332C24.1737 61.6046 24.1987 61.2539 24.2487 60.9812C24.3487 60.7085 24.5237 60.4552 24.7738 60.2215C24.9738 59.9487 25.3238 59.8124 25.8239 59.8124C28.3743 59.8124 30.4246 60.2994 31.9748 61.2734C33.5251 62.2475 34.3002 63.6501 34.3002 65.4813V69.7475C34.3002 70.4878 33.9751 71.4813 33.325 72.7281C32.725 73.9749 32.0499 75.1242 31.2997 76.1762L30.3246 77.6372C30.8747 79.6243 31.9498 83.2087 33.5501 88.3906C35.2003 93.5335 36.1005 96.2608 36.2505 96.5725C36.3005 96.6115 36.3505 96.7089 36.4005 96.8647C36.5005 97.0206 36.6756 97.2544 36.9256 97.566C37.2756 98.1115 37.4507 98.579 37.4507 98.9687C37.4507 99.5141 37.1756 99.7868 36.6255 99.7868L35.5754 99.4946ZM26.724 77.1113C27.6742 77.1113 28.5243 76.7411 29.2744 76.0009C30.0245 75.2606 30.6246 74.306 31.0747 73.1372C31.8748 70.7605 32.2749 68.8709 32.2749 67.4683C32.2749 66.5722 32.1999 65.8319 32.0499 65.2475C31.9498 64.6631 31.7498 64.0397 31.4498 63.3774C30.8497 62.0137 29.4245 61.3319 27.1741 61.3319C26.9241 61.3319 26.724 61.5072 26.574 61.8579C26.424 62.1695 26.349 62.5007 26.349 62.8514C26.349 65.4618 26.399 67.819 26.499 69.9229C26.549 72.0268 26.574 74.384 26.574 76.9944L26.724 77.1113ZM49.9053 98.7933C48.7551 98.7933 48.08 98.5985 47.88 98.2089C47.63 98.2089 47.4299 98.2284 47.2799 98.2673H46.6798C45.5797 98.2673 44.8795 98.0725 44.5795 97.6829C44.5795 97.4102 44.7795 97.1764 45.1796 96.9816L45.5546 96.6894H47.73L48.03 96.4556L48.18 95.9297L48.2551 95.2284C48.2551 92.8517 48.18 90.7283 48.03 88.8582L47.88 86.6958L47.73 82.4295C47.73 80.91 47.805 78.6308 47.955 75.5918L48.105 68.8125C48.105 65.8514 47.98 63.5916 47.73 62.0332C47.2799 61.9163 46.5298 61.8579 45.4796 61.8579L44.6545 61.9163C44.3545 61.9553 44.0294 61.9747 43.6794 61.9747C42.7292 61.9747 42.2541 61.6436 42.2541 60.9812C42.2541 60.8254 42.4792 60.6695 42.9293 60.5137C43.3793 60.3578 43.7544 60.2799 44.0544 60.2799C45.9547 60.2799 47.855 60.3578 49.7553 60.5137C50.9055 60.5526 52.0556 60.728 53.2058 61.0397C54.1059 61.2734 54.556 61.6046 54.556 62.0332C54.556 62.1111 54.481 62.2669 54.331 62.5007L52.6057 62.6176C52.2557 62.3838 51.5306 62.2669 50.4304 62.2669L50.0553 62.4423C50.2054 62.7929 50.2804 63.8254 50.2804 65.5397C50.2804 68.1112 50.2554 70.4294 50.2053 72.4943L50.0553 79.449C50.0553 81.2022 50.1553 83.3256 50.3554 85.8192C50.5054 88.6633 50.5804 90.8062 50.5804 92.2478V93.0075C50.5304 93.2803 50.5054 93.6309 50.5054 94.0595C50.5054 94.9556 50.5804 95.5011 50.7304 95.6959L50.6554 95.8128C50.6554 96.2024 51.2055 96.3972 52.3057 96.3972C52.7557 96.3972 53.1308 96.3777 53.4308 96.3388H54.556C56.0062 96.3388 56.7313 96.6115 56.7313 97.1569C56.7313 97.5076 56.5813 97.7998 56.2813 98.0336C55.9812 98.2284 55.5812 98.3258 55.0811 98.3258C54.631 98.3258 54.231 98.2868 53.8809 98.2089C53.4808 98.1699 53.0558 98.1505 52.6057 98.1505C52.3057 98.1505 51.8556 98.2479 51.2555 98.4427C50.6554 98.6764 50.2054 98.7933 49.9053 98.7933ZM82.7833 99.0271C82.3832 99.0271 82.0832 98.9102 81.8831 98.6765C81.7331 98.4427 81.5831 98.092 81.4331 97.6245C81.3831 97.3128 81.2831 97.0401 81.133 96.8063L81.208 96.631C80.808 94.7998 79.9579 92.5595 78.6577 89.9101L77.3075 86.8711C77.2074 86.7932 76.7324 85.7997 75.8822 83.8906L75.2821 82.488C70.7815 71.6567 67.956 65.793 66.8059 64.8968C66.4058 65.9488 66.2058 67.3125 66.2058 68.9878C66.2058 69.8839 66.2308 70.6631 66.2808 71.3255L66.3558 73.6047L66.2808 75.0073C66.2308 75.4359 66.2058 75.9035 66.2058 76.41C66.2058 77.2671 66.2558 78.0074 66.3558 78.6308C66.4558 79.8775 66.5058 80.5009 66.5058 80.5009H66.2808C66.2808 87.0075 66.4558 90.5919 66.8059 91.2543V96.5141C67.0059 96.8258 67.1059 97.2349 67.1059 97.7414C67.1059 98.0531 66.9559 98.3258 66.6558 98.5596C66.4058 98.7933 66.0808 98.9102 65.6807 98.9102C64.6305 98.9102 64.1055 97.8583 64.1055 95.7543L64.2555 93.8842C64.3555 93.2998 64.4055 92.6569 64.4055 91.9556C64.4055 90.0854 64.3305 87.2802 64.1805 83.5399C64.0304 79.7996 63.9554 76.9944 63.9554 75.1242C63.9554 73.9944 64.0304 72.2606 64.1805 69.9229C64.3305 67.6241 64.4055 65.9098 64.4055 64.78V64.0202C64.4055 62.1111 64.8556 60.8643 65.7557 60.2799L65.9807 60.4552L66.7309 60.3384C66.9309 60.3773 67.1559 60.4942 67.406 60.689C67.606 60.8449 67.706 61.0202 67.706 61.215L67.856 61.5656C67.856 61.6436 67.856 61.7215 67.856 61.7994C67.906 61.8384 67.931 61.8579 67.931 61.8579C68.7312 64.6241 70.5314 68.5008 73.3319 73.4879C76.1823 78.7477 77.9576 82.2347 78.6577 83.949C79.1577 85.3127 79.5578 86.5205 79.8578 87.5724C80.808 90.8841 81.9332 93.4361 83.2333 95.2284L83.3834 95.053C84.5335 86.4036 85.1086 75.7866 85.1086 63.202L85.0336 62.5007C84.9836 62.3059 84.9586 62.0527 84.9586 61.741C84.9586 60.9228 85.3087 60.5137 86.0088 60.5137C86.4588 60.5137 86.8339 60.689 87.1339 61.0397C87.484 61.3903 87.659 61.7799 87.659 62.2085V66.1241L87.284 66.5917C87.284 70.293 87.0089 76.371 86.4588 84.8256C85.9088 93.2803 85.3837 97.8777 84.8836 98.618L83.6084 98.8518V98.9102L83.5334 98.8518L82.7833 99.0271ZM107.009 99.2024C104.709 99.2024 103.008 98.9881 101.908 98.5596C100.808 98.131 99.9829 97.3128 99.4328 96.105C98.9327 94.8582 98.4827 92.8907 98.0826 90.2023C97.4825 86.2672 97.1825 83.2087 97.1825 81.0269C97.1825 79.7022 97.2825 78.1827 97.4825 76.4684L97.9326 72.7865C98.1826 69.8644 98.4577 67.6631 98.7577 66.1826C99.1078 64.6631 99.8329 63.3384 100.933 62.2085C102.083 61.0397 103.833 60.3578 106.184 60.163C106.434 60.1241 106.834 60.1046 107.384 60.1046C108.934 60.1046 109.709 60.3773 109.709 60.9228C109.709 61.1565 109.534 61.3708 109.184 61.5656C108.884 61.7215 108.559 61.7994 108.209 61.7994L107.459 61.741L106.784 61.6825C105.934 61.6825 105.159 61.8968 104.459 62.3254C103.808 62.754 103.258 63.3773 102.808 64.1955C101.758 66.1436 101.083 68.0527 100.783 69.9229C100.383 72.3774 100.133 74.5203 100.033 76.3515L99.9579 80.8516C99.9579 82.7607 100.033 84.1828 100.183 85.1179C100.533 85.5464 100.758 86.2088 100.858 87.1049C101.008 87.962 101.133 89.1504 101.233 90.6699C101.333 92.0335 101.558 93.2024 101.908 94.1764C102.258 95.1115 102.883 95.8907 103.783 96.5141C104.784 97.1764 106.159 97.5076 107.909 97.5076C109.359 97.5076 110.384 96.8842 110.985 95.6374C111.685 94.3128 112.085 92.9491 112.185 91.5465C112.335 89.7932 112.41 88.3127 112.41 87.1049V83.8906C111.91 83.501 111.035 83.3061 109.784 83.3061H109.184C108.934 83.3451 108.659 83.3646 108.359 83.3646C107.159 83.3646 106.559 83.1308 106.559 82.6633C106.559 82.0009 107.159 81.6698 108.359 81.6698C109.209 81.6698 109.909 81.6892 110.459 81.7282L112.11 81.7866C113.06 81.9035 113.81 82.0399 114.36 82.1957C114.96 82.3516 115.26 82.5659 115.26 82.8386C115.26 83.3451 115.11 84.0659 114.81 85.001C114.56 86.0919 114.435 86.8322 114.435 87.2218C114.435 88.8582 114.485 90.3387 114.585 91.6634C114.635 93.027 114.66 94.527 114.66 96.1634C112.11 98.1894 109.559 99.2024 107.009 99.2024ZM125.002 99.5531C124.102 99.5531 123.601 99.144 123.501 98.3258V97.566C123.551 97.3712 123.576 97.1375 123.576 96.8647L123.276 96.631C123.676 95.8128 123.877 95.0141 123.877 94.2348C123.877 93.3387 123.801 92.053 123.651 90.3776L123.501 86.5205C123.501 84.5724 123.576 81.6503 123.726 77.7541C123.927 74.2866 124.027 71.345 124.027 68.9294L123.877 65.4228C123.776 64.3709 123.726 63.202 123.726 61.9163C123.726 61.3319 123.902 60.9228 124.252 60.689C124.602 60.4163 125.152 60.2799 125.902 60.2799C126.402 60.2799 126.802 60.3968 127.102 60.6306C127.202 60.6695 127.927 60.7474 129.277 60.8643C130.528 60.9812 131.603 61.1565 132.503 61.3903C133.453 61.6241 133.928 61.9163 133.928 62.2669C133.928 62.6566 133.453 63.0462 132.503 63.4358C129.652 62.6955 127.627 62.3254 126.427 62.3254L126.052 62.676C126.102 63.0267 126.127 63.8644 126.127 65.1891C126.127 66.8644 126.077 68.3644 125.977 69.6891C125.927 71.0528 125.902 72.5723 125.902 74.2476C125.902 75.3385 126.252 75.884 126.952 75.884L128.152 75.8255C128.552 75.7866 128.977 75.7671 129.427 75.7671C131.378 75.7671 132.353 76.1178 132.353 76.8191C132.353 77.2476 132.228 77.6178 131.978 77.9295C131.728 78.2022 131.353 78.3386 130.853 78.3386C130.102 78.3386 129.527 78.1827 129.127 77.871L126.727 77.5788H126.352L125.977 77.871V78.0463C126.077 78.7087 126.127 80.2477 126.127 82.6633C126.127 84.1828 126.102 85.5659 126.052 86.8127L125.977 90.9621C125.977 92.4816 126.052 94.04 126.202 95.6374C126.252 96.5336 126.502 97.1375 126.952 97.4492C127.402 97.7219 128.227 97.8583 129.427 97.8583L130.778 97.7998C131.228 97.7609 131.728 97.7414 132.278 97.7414C133.728 97.7414 134.453 97.9946 134.453 98.5011C134.453 99.2024 133.353 99.5531 131.153 99.5531H125.002ZM154.246 99.4946C153.646 98.9881 152.995 97.644 152.295 95.4621C151.595 93.2803 150.945 90.8257 150.345 88.0984C149.945 85.8776 149.37 83.6763 148.62 81.4944C148.02 79.5464 147.445 78.5723 146.894 78.5723H146.669C145.569 78.5723 145.019 78.8451 145.019 79.3905C145.019 82.1957 145.219 86.462 145.619 92.1894C145.819 95.6959 146.044 97.7414 146.294 98.3258L145.694 99.3193H144.644L144.044 98.8518C143.244 80.8516 142.844 68.5787 142.844 62.0332C142.844 61.6046 142.869 61.2539 142.919 60.9812C143.019 60.7085 143.194 60.4552 143.444 60.2215C143.644 59.9487 143.994 59.8124 144.494 59.8124C147.045 59.8124 149.095 60.2994 150.645 61.2734C152.195 62.2475 152.97 63.6501 152.97 65.4813V69.7475C152.97 70.4878 152.645 71.4813 151.995 72.7281C151.395 73.9749 150.72 75.1242 149.97 76.1762L148.995 77.6372C149.545 79.6243 150.62 83.2087 152.22 88.3906C153.871 93.5335 154.771 96.2608 154.921 96.5725C154.971 96.6115 155.021 96.7089 155.071 96.8647C155.171 97.0206 155.346 97.2544 155.596 97.566C155.946 98.1115 156.121 98.579 156.121 98.9687C156.121 99.5141 155.846 99.7868 155.296 99.7868L154.246 99.4946ZM145.394 77.1113C146.344 77.1113 147.195 76.7411 147.945 76.0009C148.695 75.2606 149.295 74.306 149.745 73.1372C150.545 70.7605 150.945 68.8709 150.945 67.4683C150.945 66.5722 150.87 65.8319 150.72 65.2475C150.62 64.6631 150.42 64.0397 150.12 63.3774C149.52 62.0137 148.095 61.3319 145.844 61.3319C145.594 61.3319 145.394 61.5072 145.244 61.8579C145.094 62.1695 145.019 62.5007 145.019 62.8514C145.019 65.4618 145.069 67.819 145.169 69.9229C145.219 72.0268 145.244 74.384 145.244 76.9944L145.394 77.1113ZM165.35 99.4946C164.8 99.4167 164.275 99.2414 163.775 98.9687C163.275 98.7349 163 98.4427 162.95 98.092L163.325 97.6245C163.525 97.6245 163.975 97.6829 164.675 97.7998C165.225 97.9557 165.675 98.0336 166.025 98.0336C167.126 98.0336 168.101 97.7024 168.951 97.0401C169.801 96.3388 170.451 95.4426 170.901 94.3517C171.601 92.3257 171.951 90.4166 171.951 88.6244C171.951 85.936 170.901 83.0529 168.801 79.9749C167.501 78.1827 166.5 76.7606 165.8 75.7087C165.1 74.6567 164.475 73.4489 163.925 72.0852C163.275 70.4878 162.95 68.9488 162.95 67.4683C162.95 66.0657 163.4 64.4098 164.3 62.5007C164.75 61.6046 165.375 60.8838 166.175 60.3384C167.026 59.7539 167.926 59.4617 168.876 59.4617C169.526 59.4617 170.151 59.637 170.751 59.9877C171.401 60.3384 171.726 60.7085 171.726 61.0981C171.726 61.4098 171.401 61.5656 170.751 61.5656C170.551 61.5656 170.301 61.5072 170.001 61.3903C169.701 61.2734 169.426 61.215 169.176 61.215C168.426 61.215 167.751 61.4488 167.151 61.9163C166.55 62.3838 166.1 62.9877 165.8 63.728C165.2 65.1696 164.9 66.4943 164.9 67.7021C164.9 68.4423 165.025 69.2021 165.275 69.9813C165.325 70.2151 165.375 70.4099 165.425 70.5657C165.475 70.7216 165.5 70.8385 165.5 70.9164L165.95 72.0852L166.325 73.1372L166.926 74.1892C167.076 74.4619 167.226 74.7151 167.376 74.9489C167.576 75.1437 167.751 75.3385 167.901 75.5333L168.801 76.7606C169.001 76.9944 169.426 77.5593 170.076 78.4554C170.726 79.3126 171.326 80.2282 171.876 81.2022C172.376 82.0204 172.751 82.7996 173.001 83.5399C173.251 84.2412 173.476 85.0984 173.677 86.1114C173.827 87.0854 173.902 88.1568 173.902 89.3257C173.902 91.1958 173.577 92.9491 172.926 94.5855C172.026 96.5336 170.726 97.8972 169.026 98.6765C168.076 99.144 166.976 99.3778 165.725 99.3778L165.35 99.4946ZM171.351 61.3903C171.351 61.3514 171.326 61.3319 171.276 61.3319V61.3903H171.351Z" fill="#1E293B"/>
<path d="M187.331 48.6835L172.73 43.1096L161.049 53.2616H177.065L178.57 70.4522L213.611 81.8451L187.331 48.6835ZM187.331 48.6835L215.057 29.442L203.231 68.7443" stroke="#1E293B" stroke-width="2" stroke-miterlimit="10" stroke-linejoin="round"/>
<path d="M211.564 41.0421L228.31 35.0913L204.692 70.5462M172.551 43.0607L176.908 53.2008M178.423 70.3797L187.226 48.6283" stroke="#1E293B" stroke-width="2" stroke-miterlimit="10" stroke-linejoin="round"/>
<path d="M139.907 39.2987L140.523 85.8575M132.191 88.675L82.1026 48.8268M51.5254 56.5861L45.1597 80.0862M92.6929 28.9175C92.6929 36.3217 88.9179 43.4226 82.1978 48.6581C75.4781 53.8937 66.3639 56.8349 56.8605 56.8349C47.3571 56.8349 38.2429 53.8937 31.5232 48.6581C24.8031 43.4226 21.0281 36.3217 21.0281 28.9175C21.0281 21.5132 24.8031 14.4124 31.5232 9.17685C38.2429 3.9413 47.3571 1 56.8605 1C66.3639 1 75.4781 3.9413 82.1978 9.17685C88.9179 14.4124 92.6929 21.5132 92.6929 28.9175ZM61.7622 95.2907C61.7622 99.3563 59.6892 103.255 55.9996 106.13C52.3098 109.005 47.3053 110.62 42.0873 110.62C36.869 110.62 31.8647 109.005 28.1749 106.13C24.4851 103.255 22.4123 99.3563 22.4123 95.2907C22.4123 91.2252 24.4851 87.3264 28.1749 84.4516C31.8647 81.5768 36.869 79.9619 42.0873 79.9619C47.3053 79.9619 52.3098 81.5768 55.9996 84.4516C59.6892 87.3264 61.7622 91.2252 61.7622 95.2907ZM150.927 29.9811C150.927 31.2041 150.618 32.4152 150.017 33.5453C149.416 34.6752 148.535 35.7018 147.425 36.5666C146.315 37.4313 144.997 38.117 143.546 38.585C142.096 39.0527 140.541 39.2933 138.971 39.2929C137.401 39.2933 135.847 39.0527 134.396 38.585C132.946 38.117 131.628 37.4313 130.518 36.5666C129.407 35.7018 128.527 34.6752 127.926 33.5453C127.325 32.4152 127.016 31.2041 127.016 29.9811C127.016 28.7579 127.325 27.547 127.926 26.4169C128.527 25.287 129.407 24.2604 130.518 23.3956C131.628 22.5309 132.946 21.8452 134.396 21.3772C135.847 20.9095 137.401 20.6689 138.971 20.6693C142.141 20.6693 145.181 21.6504 147.422 23.3966C149.664 25.1431 150.923 27.5115 150.923 29.9811H150.927ZM148.759 92.9325C148.759 94.8183 147.798 96.6269 146.086 97.9603C144.375 99.2938 142.053 100.043 139.633 100.043C137.213 100.043 134.891 99.2938 133.18 97.9603C131.468 96.6269 130.507 94.8183 130.507 92.9325C130.507 91.0466 131.468 89.238 133.18 87.9046C134.891 86.5711 137.213 85.8221 139.633 85.8221C142.053 85.8221 144.375 86.5711 146.086 87.9046C147.798 89.238 148.759 91.0466 148.759 92.9325Z" stroke="#475569" stroke-width="0.3" stroke-linecap="round" stroke-linejoin="round"/>
</svg>
